<?xml version="1.0" standalone="no"?>
<!DOCTYPE svg PUBLIC "-//W3C//DTD SVG 20010904//EN"
 "http://www.w3.org/TR/2001/REC-SVG-20010904/DTD/svg10.dtd">
<svg version="1.0" xmlns="http://www.w3.org/2000/svg"
 width="512.000000pt" height="512.000000pt" viewBox="0 0 512.000000 512.000000"
 preserveAspectRatio="xMidYMid meet">
<metadata>
Created by potrace 1.14, written by Peter Selinger 2001-2017
</metadata>
<g transform="translate(0.000000,512.000000) scale(0.100000,-0.100000)"
fill="#000000" stroke="none">
<path d="M2775 4599 c-255 -20 -519 -104 -738 -235 -86 -52 -234 -164 -284
-216 l-43 -43 595 -595 595 -595 -1190 -5 -1190 -5 1195 -1195 1195 -1195 0
1195 0 1195 598 -598 598 -598 55 58 c106 112 207 262 284 425 214 453 212
990 -6 1448 -156 328 -442 620 -763 782 -278 140 -593 202 -901 177z"/>
</g>
</svg>
